<?xml version="1.0" standalone="no"?>
<!DOCTYPE svg PUBLIC "-//W3C//DTD SVG 20010904//EN"
 "http://www.w3.org/TR/2001/REC-SVG-20010904/DTD/svg10.dtd">
<svg version="1.0" xmlns="http://www.w3.org/2000/svg"
 width="512.000000pt" height="512.000000pt" viewBox="0 0 512.000000 512.000000"
 preserveAspectRatio="xMidYMid meet">
<metadata>
Created by potrace 1.16, written by Peter Selinger 2001-2019
</metadata>
<g transform="translate(0.000000,512.000000) scale(0.100000,-0.100000)"
fill="#000000" stroke="none">
<path d="M195 5108 c-66 -24 -139 -90 -172 -157 -17 -34 -18 -139 -18 -2391 0
-2312 0 -2356 19 -2394 25 -50 92 -117 142 -142 38 -18 74 -19 1302 -22 l1262
-2 0 990 0 990 -335 0 -335 0 0 390 0 390 335 0 335 0 0 310 c0 171 5 354 11
408 58 532 392 841 939 868 116 6 492 -8 603 -22 l47 -7 0 -347 0 -348 -284
-4 -283 -3 -69 -35 c-47 -24 -77 -47 -96 -75 -51 -74 -58 -130 -58 -452 l0
-293 380 0 c209 0 380 -3 380 -7 0 -11 -89 -702 -96 -740 l-5 -33 -329 0 -330
0 0 -990 0 -990 688 2 c657 3 689 4 726 22 50 25 117 92 142 142 19 38 19 82
19 2394 0 2312 0 2356 -19 2394 -25 50 -92 117 -142 142 -38 19 -84 19 -2384
21 -1640 1 -2354 -2 -2375 -9z"/>
</g>
</svg>
