<?xml version="1.0" standalone="no"?>
<!DOCTYPE svg PUBLIC "-//W3C//DTD SVG 20010904//EN"
 "http://www.w3.org/TR/2001/REC-SVG-20010904/DTD/svg10.dtd">
<svg version="1.0" xmlns="http://www.w3.org/2000/svg"
 width="1455.000000pt" height="1454.000000pt" viewBox="0 0 1455.000000 1454.000000"
 preserveAspectRatio="xMidYMid meet">
<metadata>
Created by potrace 1.16, written by Peter Selinger 2001-2019
</metadata>
<g transform="translate(0.000000,1454.000000) scale(0.100000,-0.100000)"
fill="#000000" stroke="none">
<path d="M3729 14536 c-2 -2 -73 -7 -157 -10 -85 -3 -157 -8 -162 -11 -4 -3
-38 -7 -75 -10 -38 -3 -71 -7 -74 -9 -3 -2 -31 -7 -61 -11 -30 -4 -58 -9 -61
-11 -3 -2 -25 -6 -49 -9 -23 -3 -45 -7 -49 -9 -3 -2 -22 -7 -41 -10 -39 -7
-76 -16 -165 -41 -33 -9 -67 -18 -75 -20 -64 -15 -320 -106 -397 -141 -17 -8
-33 -14 -36 -14 -12 0 -281 -134 -378 -188 -92 -51 -236 -143 -351 -224 -74
-52 -237 -185 -298 -243 -36 -34 -90 -84 -121 -111 -135 -117 -424 -461 -524
-623 -6 -9 -31 -49 -58 -89 -26 -40 -47 -74 -47 -76 0 -2 -18 -33 -39 -68
-106 -174 -244 -489 -315 -715 -39 -125 -82 -282 -91 -333 -3 -18 -8 -37 -10
-41 -3 -4 -7 -24 -10 -44 -2 -21 -7 -45 -9 -54 -3 -9 -8 -36 -11 -61 -4 -24
-8 -47 -10 -50 -2 -4 -6 -37 -10 -76 -3 -38 -7 -76 -10 -84 -16 -51 -19 -355
-22 -2222 -3 -1977 -3 -2068 14 -2069 10 -1 22 -1 26 0 13 2 20 -30 8 -42 -16
-16 -14 -27 7 -28 10 0 12 -3 4 -6 -26 -10 -1 -21 33 -13 32 7 36 6 41 -15 7
-28 -3 -48 -19 -39 -7 4 -3 -2 8 -12 19 -18 85 -27 85 -11 0 4 4 7 9 7 6 0 7
-24 4 -55 l-6 -56 24 11 c26 12 79 -1 79 -19 0 -14 -28 -33 -40 -26 -5 3 -10
1 -10 -4 0 -6 7 -11 15 -11 8 0 15 -4 15 -8 0 -10 66 -9 76 1 13 13 27 8 16
-5 -5 -7 -9 -31 -8 -53 l2 -40 39 4 c22 1 43 8 47 14 7 11 2 -40 -7 -70 -6
-17 20 -48 29 -35 4 7 21 12 37 12 30 0 30 -1 28 -42 l-3 -43 44 0 45 0 -3
-42 -4 -43 47 0 47 0 -7 -46 c-5 -43 -5 -45 15 -39 27 9 85 -14 71 -28 -5 -5
-7 -16 -4 -23 3 -8 0 -14 -7 -14 -6 0 -8 -4 -5 -10 3 -5 27 -8 53 -7 l47 2 -3
-42 -4 -43 42 0 43 0 -7 -40 -6 -40 40 0 c35 0 42 -4 51 -27 5 -15 8 -37 5
-49 -6 -24 8 -42 19 -24 10 16 55 12 61 -5 4 -8 1 -22 -6 -30 -17 -21 -4 -35
33 -35 47 0 77 -10 77 -26 0 -8 -5 -14 -11 -14 -5 0 -7 -5 -3 -11 3 -6 1 -15
-6 -19 -21 -13 43 -22 73 -11 26 10 27 10 20 -17 -15 -60 -12 -67 35 -64 34 2
42 -1 42 -15 0 -14 2 -15 9 -4 5 8 7 -5 3 -34 -4 -43 -3 -48 12 -42 10 4 21 7
26 7 5 0 11 8 13 18 3 9 6 -140 8 -333 2 -192 6 833 9 2280 4 2017 9 2650 18
2715 68 462 143 721 309 1070 107 225 245 446 396 635 134 168 398 427 571
560 94 73 264 187 341 230 28 15 55 31 60 35 20 16 252 129 340 165 87 36 274
103 305 110 8 2 27 8 43 14 15 6 27 9 27 6 0 -2 16 3 35 11 19 8 35 12 35 9 0
-2 10 -1 23 4 13 5 41 12 61 15 21 4 41 8 45 10 3 3 27 7 51 11 25 3 59 10 75
14 28 8 72 14 320 41 57 6 1096 10 2830 10 2351 0 2762 -2 2895 -15 179 -17
309 -37 430 -66 47 -12 92 -22 101 -24 26 -5 159 -45 234 -70 145 -49 265
-100 435 -185 870 -440 1503 -1245 1723 -2191 36 -156 55 -281 77 -497 14
-141 14 -5553 0 -5694 -19 -188 -30 -269 -61 -425 -13 -63 -44 -190 -59 -238
-37 -117 -74 -225 -86 -252 -8 -17 -14 -34 -14 -38 0 -3 -11 -31 -25 -61 -14
-30 -25 -57 -25 -60 0 -15 -134 -271 -190 -364 -197 -326 -458 -626 -755 -869
-66 -53 -187 -144 -223 -166 -9 -5 -39 -25 -67 -44 -127 -87 -382 -219 -555
-286 -104 -41 -254 -94 -284 -100 -10 -3 -44 -12 -75 -21 -31 -9 -66 -18 -78
-20 -12 -2 -34 -9 -48 -14 -14 -5 -25 -8 -25 -5 0 2 -15 -1 -32 -6 -18 -5 -53
-12 -78 -15 -25 -3 -48 -8 -52 -10 -9 -6 -134 -21 -228 -29 -41 -3 -86 -9
-100 -12 -14 -4 -387 -8 -830 -8 -2541 -4 -4293 -10 -4005 -15 182 -3 325 -6
318 -8 -6 -1 -13 -14 -15 -29 -2 -22 -8 -27 -23 -25 -19 3 -19 3 -3 -14 18
-18 74 -26 98 -14 12 7 15 0 15 -33 0 -23 -4 -45 -10 -49 -18 -13 0 -17 38 -8
31 7 39 5 47 -10 5 -10 7 -32 4 -49 -6 -31 -6 -31 27 -25 19 3 39 7 46 9 6 2
19 -5 29 -16 15 -16 15 -19 2 -14 -22 9 -33 -12 -16 -32 11 -15 10 -16 -10
-11 -19 5 -21 4 -11 -8 7 -8 19 -12 27 -9 8 3 30 3 48 -1 30 -6 33 -9 28 -33
-4 -14 -7 -30 -8 -35 0 -4 17 -10 39 -13 21 -2 40 -5 41 -6 1 -1 4 -18 6 -37
4 -32 7 -35 44 -40 38 -5 39 -6 39 -45 l0 -40 43 3 42 3 0 -45 0 -46 43 0 c50
0 62 -7 45 -28 -14 -17 -19 -42 -13 -61 4 -10 8 -11 20 -1 10 8 30 10 61 5 45
-6 46 -7 25 -22 -31 -21 -25 -59 9 -56 14 1 35 0 47 -2 19 -4 20 -10 16 -46
l-6 -41 39 3 c21 2 48 -2 59 -9 18 -10 18 -11 2 -12 -15 0 -18 -7 -15 -32 3
-29 6 -33 28 -30 38 4 72 -7 64 -20 -4 -7 -9 -25 -11 -40 -3 -28 -2 -28 37
-22 32 5 41 3 46 -11 4 -10 2 -26 -4 -36 -10 -16 -7 -20 31 -30 55 -14 71 -27
56 -45 -9 -11 -6 -14 17 -16 16 -2 -126 -5 -316 -8 -190 -3 737 -6 2060 -8
2066 -1 2423 0 2530 13 138 16 244 31 275 39 11 2 49 10 85 17 106 19 317 75
445 117 463 153 932 419 1280 726 196 173 424 413 552 581 56 74 233 332 233
340 0 2 21 39 47 82 159 267 337 720 402 1023 7 30 16 73 21 95 21 100 35 188
62 390 20 151 19 7500 -1 7660 -31 252 -67 446 -120 640 -31 113 -92 296 -117
352 -13 28 -24 55 -24 58 0 9 -110 258 -120 270 -4 6 -27 48 -51 95 -65 127
-157 276 -263 425 -255 357 -691 773 -1028 980 -9 5 -54 34 -101 63 -132 81
-299 168 -442 228 -71 30 -139 59 -150 64 -115 50 -476 158 -540 161 -2 0 -19
4 -36 9 -18 5 -50 12 -73 16 -22 3 -44 7 -47 10 -7 4 -51 11 -264 41 -98 15
-492 17 -3761 20 -2007 2 -3652 2 -3655 -1z"/>
<path d="M4570 12213 c-426 -26 -939 -227 -1295 -506 -183 -144 -380 -348
-487 -507 -10 -14 -31 -45 -49 -69 -29 -41 -169 -286 -169 -295 0 -2 -15 -37
-34 -78 -18 -40 -41 -95 -50 -123 -10 -27 -21 -59 -26 -70 -19 -42 -79 -276
-94 -365 -36 -212 -36 -191 -35 -2955 1 -2245 6 -2943 17 -2812 1 10 6 16 11
12 5 -3 13 -1 16 5 4 6 1 9 -7 8 -8 -2 -14 9 -16 30 -3 28 0 32 22 32 13 0 27
6 30 13 3 6 4 -16 2 -50 -4 -67 -4 -68 22 -54 10 5 27 5 40 0 21 -8 23 -13 17
-48 l-6 -39 44 5 c46 5 65 -6 50 -29 -10 -18 -14 -40 -8 -57 4 -10 8 -11 20
-1 9 8 28 10 49 6 30 -6 34 -10 32 -32 -2 -14 -9 -30 -17 -35 -16 -10 -17 -10
43 -12 51 -2 66 -10 51 -29 -5 -7 -9 -22 -9 -33 1 -16 9 -21 42 -23 35 -3 43
-7 46 -27 3 -13 0 -29 -5 -34 -14 -14 15 -24 57 -19 33 4 34 2 33 -29 -1 -21
-6 -33 -15 -33 -12 0 -12 -3 -2 -15 7 -9 29 -15 51 -15 41 0 56 -21 44 -60 -8
-25 3 -44 18 -32 7 5 30 12 52 15 22 4 34 3 27 -1 -7 -5 -13 -26 -15 -48 l-2
-39 42 3 c33 3 44 0 52 -16 8 -15 7 -23 -4 -32 -22 -18 -10 -27 45 -35 28 -4
50 -10 50 -14 0 -3 -7 -17 -16 -29 -12 -18 -13 -26 -4 -37 14 -17 4 -55 -16
-55 -19 0 -18 -8 8 -35 l22 -23 13 26 c9 17 10 29 3 36 -21 21 -11 46 18 46
15 0 34 6 41 13 11 10 12 7 7 -18 -4 -16 -15 -36 -24 -43 -16 -12 -16 -14 1
-23 21 -12 22 -45 1 -57 -14 -8 -14 -12 -3 -30 17 -27 21 -27 44 -2 16 18 16
20 2 20 -12 0 -17 9 -17 30 0 27 3 30 33 30 26 0 36 -6 45 -25 10 -23 9 -27
-9 -33 -36 -14 3 -36 51 -29 l40 5 0 -44 0 -44 43 0 42 0 -3 -45 -4 -45 39 0
c33 0 40 -4 52 -31 7 -17 10 -34 5 -38 -5 -3 -10 -17 -12 -30 -1 -13 -9 -29
-18 -36 -14 -10 -13 -13 9 -28 24 -15 26 -15 40 6 13 20 15 20 38 6 14 -10 37
-14 54 -12 17 2 39 -2 50 -10 19 -15 19 -16 -8 -28 -33 -15 -30 -35 4 -31 19
2 21 1 9 -8 -11 -8 -4 -9 27 -4 32 5 46 2 58 -10 10 -10 12 -16 5 -16 -8 0
-10 -10 -8 -25 3 -14 1 -25 -4 -25 -5 0 -7 -4 -4 -9 3 -5 23 -7 44 -5 45 6 77
-11 51 -26 -24 -14 -13 -63 11 -55 10 3 30 3 44 -1 22 -5 25 -10 20 -28 -4
-11 -12 -24 -18 -28 -20 -13 6 -23 60 -22 58 0 60 -2 43 -39 -8 -17 -19 -24
-40 -24 -17 0 -29 6 -29 14 0 16 -24 17 -38 1 -7 -9 -5 -20 9 -37 l19 -23 18
21 c15 19 21 20 56 10 22 -6 52 -9 69 -6 31 4 30 6 15 -64 -4 -17 71 -26 81
-10 4 6 7 -8 8 -29 2 -35 -1 -40 -20 -41 -17 -1 -18 -2 -4 -6 9 -2 17 -9 17
-15 0 -7 17 -9 45 -6 49 6 62 -2 47 -28 -18 -32 -3 -53 42 -56 45 -3 42 4 33
-81 -1 -16 -10 -34 -19 -41 -15 -11 -15 -14 3 -36 l19 -25 19 25 c17 21 17 26
5 33 -16 9 -19 33 -4 42 6 4 24 4 40 0 23 -5 30 -12 30 -30 0 -18 -4 -23 -15
-19 -8 4 -15 1 -15 -5 0 -14 43 -31 79 -31 35 0 44 -9 28 -28 -9 -12 -9 -16 1
-19 19 -7 14 -21 -10 -26 -13 -2 9 -5 47 -6 39 -2 64 -5 58 -8 -18 -7 -16 -21
5 -27 9 -3 -12 -3 -47 -1 -35 3 -76 5 -91 5 -19 0 -29 6 -33 20 -3 11 -1 20 3
20 13 0 5 33 -10 38 -8 3 -10 0 -6 -7 6 -8 0 -10 -17 -6 -14 4 -28 2 -32 -4
-3 -7 -3 -11 2 -10 29 5 43 -26 19 -44 -6 -5 -3 -6 8 -3 11 4 23 1 27 -6 7
-11 541 -13 2816 -13 3017 0 2799 -3 3063 44 105 19 322 83 397 117 17 8 34
14 38 14 4 0 68 30 142 66 264 127 450 261 664 474 199 198 329 376 447 608
129 254 190 437 244 732 l23 125 0 2850 c0 2268 -3 2867 -13 2935 -59 392
-190 732 -403 1050 -32 47 -66 94 -76 105 -10 11 -31 38 -47 60 -55 74 -290
306 -391 384 -201 156 -383 260 -615 353 -138 55 -291 99 -440 127 -30 5 -84
16 -120 23 -52 10 -624 13 -2875 14 -1545 0 -2835 -1 -2865 -3z m6179 -1274
c220 -69 362 -219 407 -427 22 -105 16 -184 -22 -301 -37 -112 -161 -252 -269
-302 -232 -107 -465 -68 -640 106 -112 112 -158 225 -158 391 0 112 9 146 62
252 40 82 146 193 216 227 109 52 158 64 264 64 58 1 121 -4 140 -10z m-2964
-1054 c375 -49 667 -137 990 -298 354 -176 651 -403 916 -698 96 -107 120
-136 178 -210 28 -37 171 -248 171 -254 0 -3 17 -33 38 -67 73 -120 137 -254
206 -433 40 -102 98 -281 98 -305 0 -3 4 -14 8 -26 5 -11 11 -38 14 -58 4 -21
9 -42 12 -47 2 -5 7 -25 10 -46 2 -21 6 -45 9 -53 20 -65 54 -425 55 -570 0
-58 -4 -141 -10 -185 -5 -44 -12 -116 -15 -160 -4 -43 -8 -82 -10 -85 -2 -4
-7 -31 -10 -60 -4 -30 -8 -57 -10 -60 -2 -3 -6 -25 -10 -49 -3 -24 -10 -54
-15 -67 -5 -13 -8 -24 -5 -24 2 0 -5 -30 -16 -67 -11 -38 -22 -76 -24 -86 -9
-39 -44 -144 -75 -222 -84 -211 -126 -301 -209 -445 -143 -250 -294 -445 -515
-665 -329 -326 -702 -561 -1136 -713 -110 -39 -241 -79 -282 -87 -11 -2 -27
-6 -36 -9 -9 -3 -32 -8 -51 -11 -19 -3 -37 -8 -40 -10 -8 -5 -181 -32 -255
-40 -116 -13 -174 -16 -366 -16 -249 0 -356 9 -545 45 -44 9 -93 18 -110 21
-16 3 -38 8 -47 11 -9 3 -26 7 -38 9 -56 11 -281 84 -385 125 -218 86 -428
201 -659 360 -172 119 -419 349 -579 540 -219 262 -436 641 -528 925 -7 22
-16 45 -19 50 -4 6 -12 28 -18 50 -6 22 -20 72 -31 110 -27 93 -56 224 -69
310 -6 39 -17 106 -24 150 -17 106 -17 631 0 735 7 41 17 107 24 145 59 369
197 740 399 1076 329 548 854 1003 1434 1244 50 20 99 41 110 45 148 63 470
144 680 172 219 29 581 30 790 3z"/>
<path d="M7210 9057 c-3 -3 -32 -8 -65 -11 -50 -4 -116 -14 -259 -42 -23 -4
-144 -41 -221 -67 -203 -68 -456 -207 -655 -359 -75 -57 -284 -267 -351 -353
-97 -122 -177 -250 -247 -392 -58 -118 -128 -286 -136 -326 -2 -7 -10 -38 -20
-69 -9 -31 -19 -69 -22 -84 -3 -15 -7 -30 -9 -33 -5 -10 -33 -186 -45 -286
-25 -223 -1 -516 64 -765 159 -615 583 -1144 1141 -1423 199 -100 365 -159
550 -197 33 -6 69 -14 80 -16 11 -3 72 -11 135 -19 243 -31 531 -13 780 47
299 72 576 203 829 393 109 82 288 252 357 340 21 28 44 55 50 60 26 24 116
160 178 267 90 157 202 428 221 537 3 16 9 41 15 55 5 15 8 26 5 26 -2 0 1 15
6 33 5 17 12 55 15 82 4 28 8 53 11 57 20 35 23 500 3 615 -6 40 -13 83 -14
95 -2 13 -6 32 -9 43 -3 11 -9 36 -12 55 -14 84 -68 248 -132 401 -128 309
-357 611 -637 845 -98 81 -272 191 -418 264 -123 61 -403 164 -476 175 -15 2
-54 9 -87 15 -33 7 -87 16 -120 21 -68 11 -497 24 -505 16z"/>
</g>
</svg>
